<?xml version="1.0" standalone="no"?><svg xmlns="http://www.w3.org/2000/svg" viewBox="0 0 1440 320"><path fill="#5000ca" fill-opacity="1" d="M0,64L14.1,64C28.2,64,56,64,85,69.3C112.9,75,141,85,169,122.7C197.6,160,226,224,254,250.7C282.4,277,311,267,339,229.3C367.1,192,395,128,424,133.3C451.8,139,480,213,508,240C536.5,267,565,245,593,224C621.2,203,649,181,678,186.7C705.9,192,734,224,762,240C790.6,256,819,256,847,250.7C875.3,245,904,235,932,213.3C960,192,988,160,1016,170.7C1044.7,181,1073,235,1101,245.3C1129.4,256,1158,224,1186,208C1214.1,192,1242,192,1271,176C1298.8,160,1327,128,1355,96C1383.5,64,1412,32,1426,16L1440,0L1440,320L1425.9,320C1411.8,320,1384,320,1355,320C1327.1,320,1299,320,1271,320C1242.4,320,1214,320,1186,320C1157.6,320,1129,320,1101,320C1072.9,320,1045,320,1016,320C988.2,320,960,320,932,320C903.5,320,875,320,847,320C818.8,320,791,320,762,320C734.1,320,706,320,678,320C649.4,320,621,320,593,320C564.7,320,536,320,508,320C480,320,452,320,424,320C395.3,320,367,320,339,320C310.6,320,282,320,254,320C225.9,320,198,320,169,320C141.2,320,113,320,85,320C56.5,320,28,320,14,320L0,320Z"></path></svg>